<svg xmlns="http://www.w3.org/2000/svg" width="14" height="15" viewBox="0 0 14 15">
    <g fill="#DBDADA" >
        <path d="M6.406 9.045c.2-.296.346-.629.425-.985h.71V6.824h-.71a2.877 2.877 0 0 0-.424-.985l.503-.487-.902-.873-.504.487a3.086 3.086 0 0 0-1.019-.41V3.87H3.21v.687a3.092 3.092 0 0 0-1.02.41l-.503-.487-.903.873.504.487a2.88 2.88 0 0 0-.424.985h-.71V8.06h.71c.079.357.225.69.424.986l-.504.487.903.873.504-.488c.306.193.65.334 1.018.41v.688h1.277v-.687a3.09 3.09 0 0 0 1.019-.41l.504.487.902-.873-.504-.487zm-2.559-.123c-.844 0-1.53-.664-1.53-1.48 0-.815.686-1.479 1.53-1.479s1.53.664 1.53 1.48c0 .815-.686 1.479-1.53 1.479z"/>
        <path d="M13.137 3.087a2.88 2.88 0 0 0-.424-.985l.504-.487-.903-.873-.504.487a3.086 3.086 0 0 0-1.019-.41V.132H9.515V.82a3.09 3.09 0 0 0-1.02.41L7.993.742l-.903.873.504.487a2.88 2.88 0 0 0-.424.985h-.71v1.234h.71c.079.357.225.69.424.986l-.503.487.902.872.504-.486c.306.192.65.334 1.019.41v.686h1.276V6.59a3.09 3.09 0 0 0 1.02-.41l.503.487.902-.873-.503-.487c.199-.296.345-.629.424-.985h.71V3.086h-.71zm-2.984 2.097c-.844 0-1.53-.664-1.53-1.48 0-.815.686-1.48 1.53-1.48s1.53.665 1.53 1.48c0 .816-.686 1.48-1.53 1.48zM12.382 9.693l.503-.487-.902-.872-.504.487a3.09 3.09 0 0 0-1.019-.41v-.687H9.184v.686a3.092 3.092 0 0 0-1.02.41l-.503-.486-.903.872.504.488a2.88 2.88 0 0 0-.424.985h-.71v1.234h.71c.079.356.225.689.424.986l-.504.486.903.873.504-.487c.306.193.65.334 1.019.41v.687h1.276v-.687a3.092 3.092 0 0 0 1.02-.41l.503.487.902-.873-.504-.487c.2-.296.346-.628.425-.985h.71v-1.234h-.71a2.886 2.886 0 0 0-.424-.986zm-2.56 3.082c-.844 0-1.53-.663-1.53-1.48 0-.815.686-1.478 1.53-1.478s1.53.663 1.53 1.479c0 .816-.686 1.48-1.53 1.48z"/>
    </g>
</svg>
