<svg xmlns="http://www.w3.org/2000/svg" width="12" height="11" viewBox="0 0 12 11">
    <g fill="#FFF"  opacity=".8">
        <path d="M1.393 4.756c.77 0 1.393-.615 1.393-1.375 0 .76.623 1.375 1.393 1.375.769 0 1.392-.616 1.392-1.375 0 .76.624 1.375 1.393 1.375.77 0 1.393-.616 1.393-1.375 0 .76.624 1.375 1.393 1.375.202 0 .397-.044.576-.121v-.003c.481-.216.817-.695.817-1.25L9.286 0H1.857L.084 3.228l-.083.188c.014.541.345 1.004.816 1.216v.007c.176.075.37.117.576.117zM9.75 5.636a2.292 2.292 0 0 1-1.393-.469 2.292 2.292 0 0 1-1.393.47 2.292 2.292 0 0 1-1.393-.47 2.292 2.292 0 0 1-1.392.47 2.292 2.292 0 0 1-1.393-.47 2.292 2.292 0 0 1-1.969.394V11H5.92V6.563h2.646V11h1.76V5.56a2.3 2.3 0 0 1-.576.076zM4.211 8.401H2.577V6.563H4.21v1.838z"/>
    </g>
</svg>
