<svg xmlns="http://www.w3.org/2000/svg" width="10" height="12" viewBox="0 0 10 12">
    <path fill="#000" d="M.501 11.094V4.657c0-.5.406-.906.906-.906h.594v-.689C2.001 1.381 3.336-.001 5-.001c1.664 0 3 1.382 3 3.063v.689h.594c.5 0 .906.406.906.906v6.437c0 .5-.406.906-.906.906H1.407a.906.906 0 0 1-.906-.906zm6.447.139l.208-.199c.017-.03.045-.069.049-.173l-.452-3.706 1.042-1.042c.401-.4.578-.874.397-1.055h-.001c-.181-.182-.655-.004-1.054.397L6.095 6.497l-3.707-.42c-.104.006-.143.035-.173.052l-.199.209c-.001.023-.055.059.04.091l2.671.93.253.252-1.073 1.072c-.09.09-.199.214-.311.353l-1.186.006a.405.405 0 0 0-.204.076l-.151.159c-.039.043-.002.113.063.155l.964.339c-.154.263-.238.485-.163.559h.001c.072.075.291-.008.551-.158l.345.959c.043.065.113.102.156.063l.156-.151a.386.386 0 0 0 .075-.204l-.006-1.173c.146-.117.275-.23.369-.324l1.073-1.073.269.27.948 2.654c.034.095.069.041.092.04zm.302-7.482v-.689C7.25 1.778 6.233.749 5 .749S2.751 1.778 2.751 3.062v.689H7.25z"/>
</svg>
