<svg xmlns="http://www.w3.org/2000/svg" width="12" height="13" viewBox="0 0 12 13">
    <path fill="#FFF"  d="M6 0c-.404 0-.824.47-.814.867v5.2c-.007.458.361.866.814.866.453 0 .82-.408.814-.866v-5.2A.834.834 0 0 0 6 0zM3.134 2.167a.81.81 0 0 0-.214.08C.349 3.61-.44 6.408.24 8.722.921 11.035 3.052 13 5.973 13c2.88 0 5.038-1.863 5.76-4.144.72-2.281-.05-5.047-2.679-6.581-.372-.22-.908-.078-1.125.297-.218.376-.078.918.294 1.138 2.05 1.196 2.471 3.028 1.956 4.658-.516 1.63-2.01 2.98-4.206 2.98-2.207 0-3.683-1.43-4.178-3.115C1.3 6.548 1.755 4.725 3.67 3.71a.853.853 0 0 0 .39-.958.84.84 0 0 0-.846-.586.83.83 0 0 0-.08 0z" opacity=".8"/>
</svg>
