<svg xmlns="http://www.w3.org/2000/svg" width="14" height="13" viewBox="0 0 14 13">
    <g fill="#000" >
        <path d="M9.84 10.932c-.282.827-.844 1.595-1.519 2.068H3.205c-.675-.473-1.18-1.24-1.518-2.068h8.152zM8.321 5.79c.675.474 1.237 1.242 1.518 2.07H1.687c.337-.828.843-1.596 1.518-2.07H8.32z"/>
        <path d="M14 3.132L12.65 13H9.447c.506-.473.843-1.064 1.124-1.773 2.25 0 2.25-3.545 0-3.545-.393-1.182-1.012-1.95-1.968-2.66H7.084l-.225-1.89h4.442L11.807 0h.394l-.506 3.132H14z"/>
        <path d="M11.47 9.632c-.056.473-.394.886-.956.886H1.012c-.394 0-.675-.236-.843-.473 1.518.355 1.405-1.063 2.755-.354.337.236.618.354 1.068 0 .337-.296 1.18-.236 1.518.059.506.532 1.125-.473 1.574.06.394.472 1.406.295 1.8-.06.168-.118.45 0 .618.118 1.518.768.956-.532 1.687-.295.112.059.225.059.28.059z"/>
        <path d="M1.012 8.45h9.502c.562 0 .9.355.956.768-.337-.059-.675-.354-.956.237-.225.354-.562.177-.9 0-.337-.178-.506-.237-.955-.06-.225.119-.731.591-1.35.119-.787-.71-1.293.295-1.574-.06-.281-.413-1.63-.413-1.912-.177-.618.591-.787-.472-2.024-.118-.506.177-.787.768-1.743.414C0 8.982.337 8.45 1.012 8.45z"/>
    </g>
</svg>
