<svg xmlns="http://www.w3.org/2000/svg" width="9" height="13" viewBox="0 0 9 13">
    <path fill="#FFF"  d="M2.85.776v.82h3.077v-.82H2.85zm-.51 1.083v-.41H.058v11.39h8.661V1.449H6.437v.41a.259.259 0 0 1-.255.262H2.595a.259.259 0 0 1-.255-.262zM1.29 4.138c.09-.11.25-.125.358-.032l.21.184.383-.466a.249.249 0 0 1 .358-.03c.107.093.12.258.03.369l-.546.664a.248.248 0 0 1-.357.032l-.405-.352a.268.268 0 0 1-.03-.369zm0 2.103c.09-.11.25-.125.358-.032l.21.183.383-.465a.249.249 0 0 1 .358-.03c.107.093.12.258.03.369l-.546.664a.248.248 0 0 1-.357.031l-.405-.352a.267.267 0 0 1-.03-.368zm.031 2.471a.267.267 0 0 1-.03-.368c.09-.111.25-.125.357-.032l.21.183.383-.465A.249.249 0 0 1 2.599 8c.107.092.12.258.03.369l-.546.664a.248.248 0 0 1-.357.031l-.405-.352zm0 2.104a.268.268 0 0 1-.03-.37c.09-.11.25-.124.357-.03l.21.182.383-.465a.249.249 0 0 1 .358-.031c.107.094.12.26.03.37l-.546.664a.248.248 0 0 1-.357.032l-.405-.352zm2.13-.181c0-.146.114-.263.255-.263h3.587c.14 0 .254.117.254.263a.259.259 0 0 1-.254.262H3.706a.259.259 0 0 1-.255-.262zm.255-6.046a.259.259 0 0 1-.255-.263c0-.146.114-.263.255-.263h3.587c.14 0 .254.117.254.263a.259.259 0 0 1-.254.263H3.706zm0 2.103a.259.259 0 0 1-.255-.263c0-.146.114-.263.255-.263h3.587c.14 0 .254.117.254.263a.259.259 0 0 1-.254.263H3.706zm-.255 1.84c0-.146.114-.263.255-.263h3.587c.14 0 .254.117.254.263a.259.259 0 0 1-.254.262H3.706a.259.259 0 0 1-.255-.262z" opacity=".8"/>
</svg>
