<svg xmlns="http://www.w3.org/2000/svg" width="13" height="12" viewBox="0 0 13 12">
    <path fill="#DBDADA" d="M12.642 5.63a1.196 1.196 0 0 0-.862-.358 1.3 1.3 0 0 0-.863.332l-3.13 3h-.929v-4.48h3.807a.345.345 0 0 0 .345-.333V3.69c0-1.991-1.684-3.612-3.754-3.612H5.731c-2.07 0-3.754 1.62-3.754 3.612v.102c0 .18.159.332.344.332h3.82v4.481H1.235c-.664 0-1.207.524-1.207 1.162 0 .638.543 1.162 1.207 1.162h.53l-.544.383a.322.322 0 0 0-.066.472c.066.09.173.128.279.128.08 0 .146-.026.212-.064l1.313-.932H6.54l1.313.932a.32.32 0 0 0 .212.064.38.38 0 0 0 .279-.128.34.34 0 0 0 .066-.243.313.313 0 0 0-.146-.217l-.57-.383h.57c.319 0 .624-.114.85-.331l3.488-3.332a1.14 1.14 0 0 0 .358-.817 1.046 1.046 0 0 0-.318-.83z"/>
</svg>
