<svg xmlns="http://www.w3.org/2000/svg" width="11" height="11" viewBox="0 0 11 11">
    <g fill="#000" >
        <path d="M1.077 1.37H9.9a.27.27 0 0 0 .264-.27V.374A.27.27 0 0 0 9.9.105H1.077a.27.27 0 0 0-.263.27V1.1c.011.152.126.27.263.27zM10.885 4.693l-.721-2.048V2.06a.27.27 0 0 0-.264-.27H1.077a.27.27 0 0 0-.263.27v.631l-.7 2.002c-.068.21.058.444.287.526.183.07.378.024.481-.105v5.5c0 .14.115.269.264.269H6.76V6.53H8.87v4.353H9.91a.27.27 0 0 0 .264-.27V5.162a.439.439 0 0 0 .435.058c.218-.082.356-.316.275-.526zm-7.952.21l.023-.187.23-1.627h1.077l-.23 1.627-.023.187c-.045.304-.32.55-.618.55s-.504-.246-.459-.55zm-1.512.55c-.298 0-.493-.246-.424-.55l.034-.187.344-1.627h1.077l-.344 1.627-.034.187a.7.7 0 0 1-.653.55zM5.489 9.48H2.017v-2.95H5.5v2.95h-.011zm.538-4.751v.187c0 .304-.24.55-.538.55a.544.544 0 0 1-.539-.55V3.089h1.077v1.639zm1.57.725c-.298 0-.573-.246-.619-.55l-.023-.187-.229-1.627h1.077l.23 1.627.022.187a.453.453 0 0 1-.458.55zm1.936 0a.7.7 0 0 1-.653-.55l-.034-.187-.344-1.627H9.58l.344 1.627.034.187c.069.304-.126.55-.424.55z"/>
    </g>
</svg>
