<svg xmlns="http://www.w3.org/2000/svg" width="20" height="20" viewBox="0 0 20 20">
    <g fill="#000"  opacity=".3">
        <path d="M13.854 8.417L10.29 4.134A.34.34 0 0 0 10 3.998a.34.34 0 0 0-.29.136 80892.76 80892.76 0 0 0-3.564 4.283c-.22.264-.092.699.289.699h1.496v6.477c0 .223.186.41.41.41h3.319c.223 0 .41-.187.41-.41V9.116h1.495c.381 0 .51-.435.29-.699z"/>
        <path d="M10 0C4.477 0 0 4.477 0 10s4.477 10 10 10 10-4.477 10-10S15.523 0 10 0zm0 18.4a8.4 8.4 0 1 1 0-16.8 8.4 8.4 0 0 1 0 16.8z"/>
    </g>
</svg>
